<svg width="400" height="400" viewBox="0 0 400 400" fill="none" xmlns="http://www.w3.org/2000/svg">
  <circle cx="200" cy="200" r="180" fill="#F3F4F6" />
  <circle cx="200" cy="200" r="150" fill="#E5E7EB" />
  <circle cx="200" cy="200" r="120" fill="#D1D5DB" />
  
  <!-- Headphones -->
  <path d="M120 200C120 155.82 155.82 120 200 120C244.18 120 280 155.82 280 200V240C280 244.42 276.42 248 272 248H248C243.58 248 240 244.42 240 240V200C240 177.91 222.09 160 200 160C177.91 160 160 177.91 160 200V240C160 244.42 156.42 248 152 248H128C123.58 248 120 244.42 120 240V200Z" fill="#4F46E5" />
  
  <!-- Left Ear Cup -->
  <rect x="100" y="200" width="40" height="80" rx="20" fill="#4F46E5" />
  <rect x="110" y="210" width="20" height="60" rx="10" fill="#818CF8" />
  
  <!-- Right Ear Cup -->
  <rect x="260" y="200" width="40" height="80" rx="20" fill="#4F46E5" />
  <rect x="270" y="210" width="20" height="60" rx="10" fill="#818CF8" />
  
  <!-- Sound Waves -->
  <path d="M320 180C320 180 340 190 340 200C340 210 320 220 320 220" stroke="#4F46E5" stroke-width="4" stroke-linecap="round" />
  <path d="M340 160C340 160 370 180 370 200C370 220 340 240 340 240" stroke="#4F46E5" stroke-width="4" stroke-linecap="round" />
  <path d="M80 180C80 180 60 190 60 200C60 210 80 220 80 220" stroke="#4F46E5" stroke-width="4" stroke-linecap="round" />
  <path d="M60 160C60 160 30 180 30 200C30 220 60 240 60 240" stroke="#4F46E5" stroke-width="4" stroke-linecap="round" />
  
  <!-- Microphone -->
  <rect x="180" y="60" width="40" height="80" rx="20" fill="#4F46E5" />
  <rect x="190" y="30" width="20" height="40" rx="10" fill="#4F46E5" />
  <circle cx="200" cy="90" r="15" fill="#818CF8" />
  
  <!-- Decorative Elements -->
  <circle cx="100" cy="100" r="10" fill="#4F46E5" />
  <circle cx="300" cy="100" r="10" fill="#4F46E5" />
  <circle cx="100" cy="300" r="10" fill="#4F46E5" />
  <circle cx="300" cy="300" r="10" fill="#4F46E5" />
  
  <!-- Text Bubble -->
  <path d="M200 280C200 280 240 280 260 300C260 300 260 280 260 280C282.09 280 300 262.09 300 240C300 217.91 282.09 200 260 200H200C177.91 200 160 217.91 160 240C160 262.09 177.91 280 200 280Z" fill="white" stroke="#4F46E5" stroke-width="4" />
  
  <!-- Sound Bars in Bubble -->
  <rect x="180" y="230" width="10" height="20" rx="5" fill="#4F46E5" />
  <rect x="200" y="220" width="10" height="40" rx="5" fill="#4F46E5" />
  <rect x="220" y="225" width="10" height="30" rx="5" fill="#4F46E5" />
  <rect x="240" y="235" width="10" height="15" rx="5" fill="#4F46E5" />
  <rect x="260" y="230" width="10" height="20" rx="5" fill="#4F46E5" />
</svg> 